<svg xmlns="http://www.w3.org/2000/svg" id="Layer_2" data-name="Layer 2" viewBox="0 0 864.72 148.06"><defs><style>      .cls-1 {        fill: #fff;        stroke-width: 0px;      }    </style></defs><g id="Layer_1-2" data-name="Layer 1"><path class="cls-1" d="M0,2.36h30.76v57.29h61.52V2.36h30.96v143.33h-30.96v-58.08H30.76v58.08H0V2.36Z"></path><path class="cls-1" d="M138.61,74.42v-.39C138.61,33.47,171.38,0,216.41,0s77.4,32.88,77.4,73.63v.39c0,40.56-32.77,74.03-77.8,74.03s-77.4-32.88-77.4-73.63ZM261.44,74.42v-.39c0-25.2-18.9-46.27-45.43-46.27s-45.03,20.67-45.03,45.87v.39c0,25.2,18.9,46.27,45.43,46.27s45.03-20.67,45.03-45.87Z"></path><path class="cls-1" d="M289.12,2.36h33.17l31.36,98.84L387.03,1.97h26.54l33.37,99.23L478.1,2.36h32.37l-50.06,144.32h-26.94l-33.57-95.49-33.57,95.49h-26.94L289.12,2.36Z"></path><path class="cls-1" d="M519.41,2.36h109.97v26.97h-79.41v30.71h69.96v26.97h-69.96v31.7h80.41v26.97h-110.97V2.36Z"></path><path class="cls-1" d="M647.06,2.36h30.76v115.77h73.78v27.56h-104.54V2.36Z"></path><path class="cls-1" d="M760.18,2.36h30.76v115.77h73.78v27.56h-104.54V2.36Z"></path></g></svg>