<svg xmlns="http://www.w3.org/2000/svg" id="Layer_2" data-name="Layer 2" viewBox="0 0 70.05 29.3"><defs><style>      .cls-1 {        fill: #fff;        stroke-width: 0px;      }    </style></defs><g id="Layer_1-2" data-name="Layer 1"><g><path class="cls-1" d="M4.76,12.36c-.64,0-.99-.42-1.05-1.27-.37.37-.8.68-1.28.91-.48.24-.93.35-1.33.35-.3,0-.56-.08-.78-.25-.21-.17-.32-.42-.32-.76,0-.37.12-.82.37-1.36.25-.53.51-1,.78-1.41.28-.41.62-.89,1.03-1.45.41-.56.67-.92.77-1.08l.71-1.06c-.12.1-.34.15-.66.15-.19,0-.49-.07-.89-.2s-.67-.2-.79-.2c-.19,0-.34.06-.44.18-.1.12-.15.25-.15.4,0,.14.04.32.12.55.08.23.12.4.12.51,0,.17-.04.3-.13.4-.08.1-.19.14-.31.14-.29,0-.44-.19-.44-.56s.23-.87.69-1.47c.5-.64.93-.96,1.3-.96.13,0,.4.06.79.18.39.12.71.18.96.18.07,0,.12,0,.17-.02.04-.01.09-.03.14-.07.04-.03.08-.06.09-.08.02-.02.05-.07.1-.15.05-.08.09-.14.11-.16l.08.05-1.45,2.25c-1.23,1.94-1.84,3.47-1.84,4.59,0,.27.08.49.24.65.16.16.35.24.59.24.59,0,1.13-.22,1.64-.66.03-.77.23-1.7.6-2.8.37-1.1.81-2.08,1.33-2.92.52-.84.97-1.27,1.37-1.27.28,0,.42.2.42.59,0,.63-.26,1.51-.77,2.63s-1.18,2.14-2.02,3.05c.04.53.14.9.3,1.11.15.21.38.31.68.31.52,0,1.09-.29,1.71-.88.62-.58,1.15-1.29,1.56-2.1.42-.82.62-1.53.62-2.15,0-.45-.06-.88-.18-1.3-.12-.42-.18-.69-.18-.81,0-.38.15-.57.46-.57.35,0,.52.37.52,1.11,0,.99-.28,2.07-.84,3.23s-1.26,2.16-2.11,2.97c-.85.82-1.66,1.23-2.42,1.24ZM6.72,5.15c0-.34-.11-.51-.32-.51-.36,0-.75.55-1.16,1.65-.42,1.1-.62,2.32-.62,3.65v.1c.68-.75,1.2-1.57,1.56-2.44s.55-1.69.55-2.46Z"></path><path class="cls-1" d="M14.52,12.34c-.26,0-.46-.08-.59-.23s-.2-.33-.2-.55c0-.35.18-.89.54-1.64l1.79-3.66c.45-.92.68-1.5.68-1.72,0-.25-.11-.37-.32-.37-.16,0-.39.16-.69.49s-.8.97-1.5,1.92l-4.1,5.62c-.06,0-.15,0-.27-.02-.12-.01-.21-.02-.27-.02s-.15,0-.28.02c-.13.01-.22.02-.28.02L13.25,1.64c.09-.23.14-.39.14-.49,0-.21-.2-.32-.61-.32h-.57v-.12h.25c.41,0,.72,0,.95-.03.23-.02.5-.08.82-.19.31-.11.55-.28.69-.49l.08.03-4.69,11.68,3.8-5.22c.79-1.07,1.36-1.79,1.72-2.15.36-.37.74-.55,1.13-.55.25,0,.44.08.57.24.13.16.19.34.19.54,0,.38-.19.97-.57,1.76l-1.84,3.76c-.39.79-.59,1.31-.59,1.57,0,.2.1.3.29.3.33,0,.96-.62,1.91-1.87l.1.07c-1.07,1.45-1.9,2.18-2.5,2.18Z"></path><path class="cls-1" d="M19.55,12.34c-.48,0-.88-.2-1.19-.6-.31-.4-.46-.91-.46-1.53,0-.93.24-1.9.73-2.9.48-1,1.12-1.84,1.9-2.51.78-.67,1.57-1,2.35-1,.47,0,.86.1,1.17.3.31.2.46.47.46.81,0,.44-.29.89-.87,1.37-.58.47-1.27.86-2.06,1.17-.79.3-1.53.49-2.2.56-.21.71-.32,1.35-.32,1.92s.1,1.03.29,1.33c.19.3.46.45.79.45.81,0,1.77-.72,2.87-2.16l.08.07c-1.33,1.82-2.51,2.73-3.55,2.73ZM23.55,4.59c0-.45-.21-.68-.64-.68-.71,0-1.38.39-2.03,1.17-.64.78-1.13,1.71-1.47,2.78,1.13-.11,2.1-.5,2.91-1.15.82-.65,1.22-1.36,1.22-2.13Z"></path><path class="cls-1" d="M25.32,12.21c-.06,0-.15,0-.28-.02-.13-.01-.22-.02-.28-.02s-.15,0-.28.02c-.13.01-.22.02-.28.02l2.36-6.16c.35-.92.52-1.45.52-1.57,0-.2-.09-.3-.27-.3-.36,0-1.01.62-1.94,1.87l-.1-.07c1.06-1.45,1.9-2.18,2.52-2.18.26,0,.46.08.59.23.13.15.2.34.2.55,0,.33-.15.88-.46,1.65l-2.03,5.27,2.26-4.02c.48-.88,1.04-1.71,1.67-2.5.63-.79,1.13-1.18,1.5-1.18.15,0,.26.05.35.14.08.09.13.2.13.32,0,.25-.24.45-.71.61-1.06.33-2,1.23-2.84,2.7l-2.65,4.64Z"></path><path class="cls-1" d="M31.96,12.34c-.48,0-.88-.2-1.19-.6-.31-.4-.46-.91-.46-1.53,0-.93.24-1.9.73-2.9.48-1,1.12-1.84,1.9-2.51.78-.67,1.57-1,2.35-1,.47,0,.86.1,1.17.3.31.2.46.47.46.81,0,.44-.29.89-.87,1.37-.58.47-1.27.86-2.06,1.17-.79.3-1.53.49-2.2.56-.21.71-.32,1.35-.32,1.92s.1,1.03.29,1.33c.19.3.46.45.79.45.81,0,1.77-.72,2.87-2.16l.08.07c-1.33,1.82-2.51,2.73-3.55,2.73ZM35.96,4.59c0-.45-.21-.68-.64-.68-.71,0-1.38.39-2.03,1.17-.64.78-1.13,1.71-1.47,2.78,1.13-.11,2.1-.5,2.91-1.15.82-.65,1.22-1.36,1.22-2.13Z"></path><path class="cls-1" d="M44.31,12.36c-.64,0-.99-.42-1.05-1.27-.37.37-.8.68-1.28.91-.48.24-.93.35-1.33.35-.3,0-.56-.08-.78-.25-.21-.17-.32-.42-.32-.76,0-.37.12-.82.37-1.36.25-.53.51-1,.78-1.41.28-.41.62-.89,1.03-1.45.41-.56.67-.92.77-1.08l.71-1.06c-.12.1-.34.15-.66.15-.19,0-.49-.07-.89-.2s-.67-.2-.79-.2c-.19,0-.34.06-.44.18-.1.12-.15.25-.15.4,0,.14.04.32.12.55.08.23.12.4.12.51,0,.17-.04.3-.13.4-.08.1-.19.14-.31.14-.29,0-.44-.19-.44-.56s.23-.87.69-1.47c.5-.64.93-.96,1.3-.96.13,0,.4.06.79.18.39.12.71.18.96.18.07,0,.12,0,.17-.02.04-.01.09-.03.14-.07.04-.03.08-.06.09-.08.02-.02.05-.07.1-.15.05-.08.09-.14.11-.16l.08.05-1.45,2.25c-1.23,1.94-1.84,3.47-1.84,4.59,0,.27.08.49.24.65.16.16.35.24.59.24.59,0,1.13-.22,1.64-.66.03-.77.23-1.7.6-2.8.37-1.1.81-2.08,1.33-2.92.52-.84.97-1.27,1.37-1.27.28,0,.42.2.42.59,0,.63-.26,1.51-.77,2.63s-1.18,2.14-2.02,3.05c.04.53.14.9.3,1.11.15.21.38.31.68.31.52,0,1.09-.29,1.71-.88.62-.58,1.15-1.29,1.56-2.1.42-.82.62-1.53.62-2.15,0-.45-.06-.88-.18-1.3-.12-.42-.18-.69-.18-.81,0-.38.15-.57.46-.57.35,0,.52.37.52,1.11,0,.99-.28,2.07-.84,3.23s-1.26,2.16-2.11,2.97c-.85.82-1.66,1.23-2.42,1.24ZM46.27,5.15c0-.34-.11-.51-.32-.51-.36,0-.75.55-1.16,1.65-.42,1.1-.62,2.32-.62,3.65v.1c.68-.75,1.2-1.57,1.56-2.44s.55-1.69.55-2.46Z"></path><path class="cls-1" d="M53.06,6.23l-1.87,3.87c-.38.77-.57,1.29-.57,1.57,0,.2.1.3.29.3.33,0,.96-.62,1.91-1.87l.1.07c-1.07,1.45-1.9,2.18-2.5,2.18-.26,0-.46-.08-.59-.23s-.2-.33-.2-.55c0-.36.18-.91.54-1.65l1.87-3.87c.38-.77.57-1.29.57-1.57,0-.2-.1-.3-.29-.3-.33,0-.96.62-1.91,1.87l-.1-.07c1.07-1.45,1.9-2.18,2.5-2.18.26,0,.46.08.59.23s.2.34.2.55c0,.36-.18.91-.54,1.65ZM54.7,1.92c-.15.15-.34.22-.57.22s-.41-.07-.56-.22c-.15-.15-.22-.33-.22-.56s.07-.41.22-.57.33-.23.56-.23.41.08.57.23c.15.15.23.34.23.57s-.08.41-.23.56Z"></path><path class="cls-1" d="M54.17,12.34c-.26,0-.46-.08-.59-.23s-.2-.33-.2-.55c0-.24.17-.78.51-1.64l3.33-8.29c.09-.23.13-.39.13-.49,0-.21-.2-.32-.61-.32h-.57v-.12h.25c.41,0,.72,0,.95-.03.23-.02.5-.08.82-.19.31-.11.55-.28.69-.49l.08.03-4.03,10.04c-.37.9-.56,1.43-.56,1.59,0,.2.1.3.29.3.33,0,.96-.62,1.91-1.87l.1.07c-1.07,1.45-1.9,2.18-2.5,2.18Z"></path><path class="cls-1" d="M63.94,5.05l1.27-3.41c.09-.23.14-.39.14-.49,0-.21-.2-.32-.61-.32h-.57v-.12h.25c.39,0,.71,0,.94-.03s.51-.08.83-.19.55-.28.7-.49l.08.03-3.88,10.04c-.02.07-.09.24-.21.51-.12.28-.21.5-.26.68-.06.17-.08.31-.08.4,0,.2.1.3.29.3.33,0,.96-.62,1.91-1.87l.1.07c-1.07,1.45-1.9,2.18-2.5,2.18-.25,0-.44-.07-.58-.22-.14-.15-.21-.34-.21-.57,0-.1.02-.22.06-.37.04-.15.08-.27.12-.37.04-.1.1-.26.19-.47.09-.21.14-.35.16-.42l1.67-4.3-3.02,4.54c-.51.77-.94,1.32-1.31,1.67-.37.35-.73.52-1.11.52-.28,0-.52-.09-.72-.27-.2-.18-.3-.46-.3-.84,0-.48.14-1.14.41-1.96.28-.82.63-1.64,1.06-2.46.43-.82.96-1.52,1.57-2.12.61-.6,1.21-.89,1.8-.89.62,0,1.23.42,1.82,1.25ZM58.81,11.97c.35,0,.95-.64,1.79-1.91l3.26-4.88c-.19-.33-.43-.61-.71-.85-.28-.24-.56-.36-.83-.36-.56,0-1.16.51-1.8,1.52-.64,1.01-1.14,2.1-1.52,3.25-.38,1.15-.57,2.02-.57,2.61,0,.42.12.62.37.62Z"></path><path class="cls-1" d="M11.5,19.34l-1.87,3.87c-.38.77-.57,1.29-.57,1.57,0,.2.1.3.29.3.33,0,.96-.62,1.91-1.87l.1.07c-1.07,1.45-1.9,2.18-2.5,2.18-.26,0-.46-.08-.59-.23s-.2-.33-.2-.55c0-.36.18-.91.54-1.65l1.87-3.87c.38-.77.57-1.29.57-1.57,0-.2-.1-.3-.29-.3-.33,0-.96.62-1.91,1.87l-.1-.07c1.07-1.45,1.9-2.18,2.5-2.18.26,0,.46.08.59.23s.2.34.2.55c0,.36-.18.91-.54,1.65ZM13.15,15.03c-.15.15-.34.22-.57.22s-.41-.07-.56-.22c-.15-.15-.22-.33-.22-.56s.07-.41.22-.57.33-.23.56-.23.41.08.57.23c.15.15.23.34.23.57s-.08.41-.23.56Z"></path><path class="cls-1" d="M18.69,18.16l1.27-3.41c.09-.23.14-.39.14-.49,0-.21-.2-.32-.61-.32h-.57v-.12h.25c.39,0,.71,0,.94-.03s.51-.08.83-.19.55-.28.7-.49l.08.03-3.88,10.04c-.02.07-.09.24-.21.51-.12.28-.21.5-.26.68-.06.17-.08.31-.08.4,0,.2.1.3.29.3.33,0,.96-.62,1.91-1.87l.1.07c-1.07,1.45-1.9,2.18-2.5,2.18-.25,0-.44-.07-.58-.22-.14-.15-.21-.34-.21-.57,0-.1.02-.22.06-.37.04-.15.08-.27.12-.37.04-.1.1-.26.19-.47.09-.21.14-.35.16-.42l1.67-4.3-3.02,4.54c-.51.77-.94,1.32-1.31,1.67-.37.35-.73.52-1.11.52-.28,0-.52-.09-.72-.27-.2-.18-.3-.46-.3-.84,0-.48.14-1.14.41-1.96.28-.82.63-1.64,1.06-2.46.43-.82.96-1.52,1.57-2.12.61-.6,1.21-.89,1.8-.89.62,0,1.23.42,1.82,1.25ZM13.56,25.08c.35,0,.95-.64,1.79-1.91l3.26-4.88c-.19-.33-.43-.61-.71-.85-.28-.24-.56-.36-.83-.36-.56,0-1.16.51-1.8,1.52-.64,1.01-1.14,2.1-1.52,3.25-.38,1.15-.57,2.02-.57,2.61,0,.42.12.62.37.62Z"></path><path class="cls-1" d="M22,25.45c-.48,0-.88-.2-1.19-.6-.31-.4-.46-.91-.46-1.53,0-.93.24-1.9.73-2.9.48-1,1.12-1.84,1.9-2.51.78-.67,1.57-1,2.35-1,.47,0,.86.1,1.17.3.31.2.46.47.46.81,0,.44-.29.89-.87,1.37-.58.47-1.27.86-2.06,1.17-.79.3-1.53.49-2.2.56-.21.71-.32,1.35-.32,1.92s.1,1.03.29,1.33c.19.3.46.45.79.45.81,0,1.77-.72,2.87-2.16l.08.07c-1.33,1.82-2.51,2.73-3.54,2.73ZM26,17.7c0-.45-.21-.68-.64-.68-.71,0-1.38.39-2.03,1.17-.64.78-1.13,1.71-1.47,2.78,1.13-.11,2.1-.5,2.91-1.15.82-.65,1.22-1.36,1.22-2.13Z"></path><path class="cls-1" d="M31.59,25.45c-.26,0-.46-.08-.59-.23-.14-.15-.2-.33-.2-.55,0-.16.03-.33.08-.51.05-.18.13-.41.24-.68.11-.27.17-.43.19-.47l1.64-4.3-3.02,4.54c-.51.77-.94,1.32-1.31,1.67-.37.35-.73.52-1.11.52-.28,0-.52-.09-.72-.27-.2-.18-.3-.46-.3-.84,0-.48.14-1.14.41-1.96.28-.82.63-1.64,1.06-2.46.43-.82.96-1.52,1.57-2.12.61-.6,1.21-.89,1.8-.89.68,0,1.29.43,1.84,1.28.42-.16.72-.32.91-.5.19-.17.38-.44.56-.79l.1.03-2.41,6.26c-.36.95-.54,1.47-.54,1.57,0,.2.1.3.29.3.33,0,.96-.62,1.91-1.87l.1.07c-1.07,1.45-1.9,2.18-2.5,2.18ZM28.03,25.08c.35,0,.95-.64,1.79-1.91l3.26-4.88c-.18-.31-.41-.6-.7-.84-.29-.25-.57-.37-.84-.37-.56,0-1.16.51-1.8,1.52-.64,1.01-1.14,2.1-1.52,3.25-.38,1.15-.57,2.02-.57,2.61,0,.42.12.62.37.62Z"></path><path class="cls-1" d="M36.6,25.45c-.73,0-1.32-.19-1.76-.57-.44-.38-.66-.82-.66-1.32,0-.13.05-.24.14-.33s.19-.13.3-.13c.25,0,.41.17.47.52.11.62.29,1.06.52,1.32.24.26.59.39,1.06.39.51,0,.93-.17,1.27-.52.34-.35.51-.73.51-1.15,0-.59-.26-1.2-.79-1.84l-.52-.64c-.61-.75-.91-1.39-.91-1.91,0-.7.24-1.27.71-1.7s1-.66,1.59-.66,1.06.16,1.49.46c.43.31.65.63.65.97,0,.12-.05.23-.14.31s-.19.13-.3.13c-.27,0-.44-.17-.51-.52-.08-.43-.21-.74-.41-.94s-.47-.3-.83-.3c-.4,0-.76.13-1.06.39-.3.26-.45.62-.45,1.08,0,.52.31,1.17.95,1.96l.59.71c.47.56.71,1.15.71,1.77,0,.73-.27,1.33-.8,1.81-.53.47-1.15.71-1.83.71Z"></path><path class="cls-1" d="M44.98,29.13h-.73c-.18,0-.4,0-.68-.03s-.52-.03-.76-.03c-.21,0-.46,0-.73.03-.27.02-.47.03-.61.03h-.25v-.12h.27c.27,0,.49-.06.65-.17s.31-.33.45-.64l4.29-10.7c-.69.28-1.41.81-2.16,1.59l-.08-.08c.68-.74,1.45-1.32,2.33-1.74l.64-1.6c.06,0,.14,0,.25.02.11.01.2.02.25.02s.14,0,.24-.02c.11-.01.19-.02.24-.02l-.56,1.37c.78-.08,1.41.11,1.91.57.49.46.74,1.05.74,1.76s-.2,1.38-.59,2.08c-.39.7-.89,1.31-1.49,1.84-.6.53-1.23.98-1.91,1.37-.68.38-1.31.65-1.91.79l-1.1,2.7c-.09.2-.14.37-.14.49,0,.26.23.39.69.39h.71v.12ZM49.64,19.41c0-.64-.15-1.15-.44-1.54-.29-.38-.71-.58-1.25-.59l-3.07,8c1.28-.37,2.4-1.12,3.34-2.24s1.42-2.33,1.42-3.64Z"></path><path class="cls-1" d="M51.34,25.45c-.26,0-.46-.08-.59-.23-.13-.15-.2-.33-.2-.55,0-.24.17-.78.51-1.64l3.33-8.29c.09-.23.14-.39.14-.49,0-.21-.2-.32-.61-.32h-.57v-.12h.25c.4,0,.72,0,.95-.03.23-.02.5-.08.82-.19s.55-.28.69-.49l.08.03-4.03,10.04c-.37.9-.56,1.43-.56,1.59,0,.2.1.3.29.3.33,0,.96-.62,1.91-1.87l.1.07c-1.07,1.45-1.9,2.18-2.5,2.18Z"></path><path class="cls-1" d="M59.55,25.45c-.26,0-.46-.08-.59-.23-.14-.15-.2-.33-.2-.55,0-.16.03-.33.08-.51.05-.18.13-.41.24-.68.11-.27.17-.43.19-.47l1.64-4.3-3.02,4.54c-.51.77-.94,1.32-1.31,1.67-.37.35-.73.52-1.11.52-.28,0-.52-.09-.72-.27-.2-.18-.3-.46-.3-.84,0-.48.14-1.14.41-1.96.28-.82.63-1.64,1.06-2.46.43-.82.96-1.52,1.57-2.12.61-.6,1.21-.89,1.8-.89.68,0,1.29.43,1.84,1.28.42-.16.72-.32.91-.5s.38-.44.56-.79l.1.03-2.41,6.26c-.36.95-.54,1.47-.54,1.57,0,.2.1.3.29.3.33,0,.96-.62,1.91-1.87l.1.07c-1.07,1.45-1.9,2.18-2.5,2.18ZM55.99,25.08c.35,0,.95-.64,1.79-1.91l3.26-4.88c-.18-.31-.41-.6-.7-.84-.29-.25-.57-.37-.84-.37-.56,0-1.16.51-1.8,1.52s-1.14,2.1-1.52,3.25c-.38,1.15-.57,2.02-.57,2.61,0,.42.12.62.37.62Z"></path><path class="cls-1" d="M65.73,25.31c-.06,0-.14,0-.25-.02-.11-.01-.2-.02-.25-.02-.04,0-.11,0-.19.02-.08.01-.14.02-.17.02l-.35.37c-.93.99-1.94,1.84-3.01,2.55-1.07.71-2.01,1.06-2.84,1.06-.47,0-.71-.15-.71-.46s.2-.46.59-.46c.12,0,.34.05.63.15.3.1.58.15.85.15.41,0,1.04-.32,1.89-.95.86-.63,1.68-1.35,2.48-2.16l.29-.3c.27-2.16.41-4.18.41-6.04,0-.31,0-.55,0-.71,0-.16-.02-.34-.05-.54-.03-.2-.08-.35-.16-.43s-.18-.13-.3-.13c-.16,0-.35.15-.58.45-.23.3-.57.8-1,1.51l-.1-.07c.23-.37.41-.67.56-.89.15-.23.33-.47.54-.73.21-.26.42-.46.62-.59.2-.13.39-.19.58-.19.23,0,.41.06.54.19.14.12.23.31.29.56.06.25.09.47.11.68.02.2.03.46.03.78,0,1.45-.1,3.09-.29,4.91,1.29-1.49,2.17-2.61,2.63-3.38.46-.77.69-1.49.69-2.15,0-.07-.01-.22-.04-.46-.03-.24-.04-.4-.04-.48,0-.18.04-.33.13-.45.08-.12.2-.18.35-.18.31,0,.47.17.47.52,0,.59-.33,1.45-.99,2.6s-1.73,2.55-3.22,4.2l-.12,1.08Z"></path></g></g></svg>